<?xml version="1.0" encoding="UTF-8"?>
<svg id="Layer_2" data-name="Layer 2" xmlns="http://www.w3.org/2000/svg" xmlns:xlink="http://www.w3.org/1999/xlink" viewBox="0 0 58.36 127.9">
  <defs>
    <style>
      .cls-1 {
        fill: #094fad;
      }

      .cls-1, .cls-2, .cls-3, .cls-4, .cls-5 {
        stroke-width: 0px;
      }

      .cls-2 {
        fill: none;
      }

      .cls-3 {
        fill: #f4ca21;
      }

      .cls-4 {
        fill: #049754;
      }

      .cls-5 {
        fill: #de4325;
      }

      .cls-6 {
        clip-path: url(#clippath);
      }
    </style>
    <clipPath id="clippath">
      <rect class="cls-2" width="58.36" height="127.9"/>
    </clipPath>
  </defs>
  <g id="Layer_1-2" data-name="Layer 1">
    <g class="cls-6">
      <rect class="cls-2" x="-378.39" width="436.9" height="127.9"/>
      <ellipse class="cls-3" cx="19.29" cy="45.44" rx="17.59" ry="15.18"/>
      <rect class="cls-2" x="-378.39" width="451.75" height="128.45"/>
      <path class="cls-4" d="M47.36,38.45c-.24.11-.52.11-.76,0-1.32-1.34-2.45-2.85-3.39-4.48-.99-1.59-1.62-3.38-1.86-5.24-.27-1.95.07-3.94.98-5.68.6-1.1,1.38-2.09,2.29-2.95.87-.87,1.64-1.75,2.4-2.62.93-1.13,1.54-2.49,1.75-3.93.22-1.2.22-2.4.33-3.6-.05-1.46.06-2.93.33-4.37.34-1.72,1.09-3.33,2.18-4.7,2.15-2.81,5.08-4.93,8.41-6.12,2.25-.86,4.6-1.45,6.99-1.75.63.03,1.26-.04,1.86-.22.33,0,.22.22.44.44h-.76c-4.69.36-9.21,1.94-13.11,4.59-2.54,1.72-4.39,4.27-5.24,7.21-.22.75-.33,1.52-.33,2.29,0,1.42-.11,2.84-.22,4.26,0,1.55-.34,3.07-.98,4.48-.6,1.19-1.42,2.27-2.4,3.17-.87.98-1.86,1.97-2.62,2.95-.82,1.05-1.35,2.29-1.53,3.6-.37,2.61.17,5.27,1.53,7.54.98,1.76,2.19,3.38,3.6,4.81l.33.33h-.22Z"/>
      <path class="cls-4" d="M49.33,37.68c-.3.15-.52.15-.66,0-1.56-1.59-2.88-3.39-3.93-5.35-.7-1.36-1.14-2.85-1.31-4.37-.2-1.72.1-3.47.87-5.02.48-.87,1.07-1.68,1.75-2.4.76-.76,1.42-1.64,2.18-2.4,1.07-1.28,1.75-2.83,1.97-4.48.11-1.09.11-2.29.22-3.39-.03-1.55.15-3.09.55-4.59.83-2.36,2.3-4.45,4.26-6.01,2.53-2.04,5.47-3.49,8.63-4.26,1.63-.49,3.32-.78,5.02-.87h.66c.26-.03.52.1.66.33h-.87c-2.41.2-4.8.68-7.1,1.42-3.56,1.04-6.7,3.18-8.96,6.12-1.16,1.48-1.88,3.26-2.08,5.13-.11,1.31-.11,2.62-.22,3.93-.02,1.26-.2,2.5-.55,3.71-.52,1.55-1.42,2.94-2.62,4.04-.86.86-1.66,1.77-2.4,2.73-.87,1.22-1.36,2.66-1.42,4.15-.07,2.26.5,4.49,1.64,6.44,1.01,1.64,2.18,3.18,3.5,4.59,0,0,.11,0,.22.22h0v.33Z"/>
      <path class="cls-4" d="M51.41,36.81h-.66c-1.35-1.38-2.53-2.92-3.5-4.59-.87-1.47-1.42-3.11-1.64-4.81-.34-2.56.5-5.13,2.29-6.99.76-.87,1.53-1.75,2.29-2.73.75-.98,1.2-2.16,1.31-3.39l.33-3.93c0-1.9.45-3.77,1.31-5.46,1.26-2.15,3.07-3.92,5.24-5.13,2.58-1.53,5.44-2.53,8.41-2.95,1.31-.22,2.51-.33,3.82-.44.33,0,.44,0,.55.44h-1.09c-2.76.2-5.48.79-8.08,1.75-3.09,1.04-5.79,2.98-7.75,5.57-.99,1.26-1.59,2.78-1.75,4.37-.11,1.09-.11,2.18-.22,3.17.08,1.57-.18,3.13-.76,4.59-.36.88-.88,1.7-1.53,2.4l-2.29,2.62c-1.2,1.48-1.82,3.34-1.75,5.24.06,1.9.62,3.75,1.64,5.35,1.01,1.67,2.22,3.21,3.6,4.59,0,0,.11,0,.22.22h0v.11Z"/>
      <path class="cls-4" d="M72.16-1.42h-1.09c-1.96.07-3.9.36-5.79.87-3.19.71-6.13,2.25-8.52,4.48-1.56,1.49-2.59,3.44-2.95,5.57-.11,1.09-.22,2.18-.22,3.28,0,1.38-.27,2.75-.76,4.04-.51,1.07-1.18,2.06-1.97,2.95-.55.76-1.2,1.53-1.75,2.29-.55.89-.85,1.91-.87,2.95-.14,2.43.6,4.84,2.08,6.77.86,1.3,1.85,2.5,2.95,3.6l.33.33c-.29.14-.51.14-.66,0-1.56-1.55-2.88-3.31-3.93-5.24-.61-1.2-1.02-2.49-1.2-3.82-.28-1.7.07-3.45.98-4.92.45-.76,1-1.46,1.64-2.08.72-.8,1.34-1.68,1.86-2.62.42-.89.68-1.86.76-2.84.11-1.42.22-2.73.33-4.15.27-3.06,1.86-5.86,4.37-7.65,2.57-1.95,5.56-3.26,8.74-3.82,1.73-.33,3.48-.54,5.24-.66.3-.04.58.15.66.44h0l-.22.22h0Z"/>
      <path class="cls-4" d="M55.45,35.17c-.24.11-.52.11-.76,0-1.49-1.42-2.78-3.04-3.82-4.81-.97-1.69-1.42-3.63-1.31-5.57.03-1.18.41-2.32,1.09-3.28.55-.66.98-1.42,1.53-2.08,1-1.13,1.61-2.54,1.75-4.04.02-.7.1-1.39.22-2.08-.02-1.25.13-2.5.44-3.71.43-1.57,1.26-3,2.4-4.15,2.24-2.12,4.98-3.63,7.97-4.37,1.64-.46,3.32-.75,5.02-.87C70.82.2,71.65.13,72.49,0h.22c.06.12.13.23.22.33h-1.31c-3.38.11-6.72.86-9.83,2.18-2.29.97-4.25,2.56-5.68,4.59-.76,1.14-1.21,2.46-1.31,3.82l-.33,3.6c-.14,1.91-.91,3.71-2.18,5.13-.71.78-1.29,1.67-1.75,2.62-.51,1.09-.7,2.3-.55,3.5.26,2.37,1.21,4.61,2.73,6.44.71.89,1.47,1.73,2.29,2.51l.22.22h0l.22.22Z"/>
      <path class="cls-4" d="M57.41,34.41c-.24.11-.52.11-.76,0-1.55-1.47-2.88-3.16-3.93-5.02-.8-1.59-1.17-3.36-1.09-5.13.05-1.11.43-2.17,1.09-3.06.55-.76,1.09-1.53,1.64-2.4.62-.95.99-2.04,1.09-3.17.11-1.2.22-2.4.33-3.71.37-2.57,1.84-4.85,4.04-6.23,2.26-1.63,4.88-2.69,7.65-3.06,1.73-.34,3.48-.53,5.24-.55h.87c.33,0,.44.11.55.44h-.55c-2.32-.02-4.63.24-6.88.76-2.8.54-5.4,1.82-7.54,3.71-1.57,1.28-2.59,3.12-2.84,5.13-.11.98-.22,2.08-.33,3.17-.1,1.74-.71,3.41-1.75,4.81-.65.81-1.2,1.69-1.64,2.62-.42,1-.57,2.09-.44,3.17.31,2.56,1.47,4.94,3.28,6.77.53.64,1.11,1.22,1.75,1.75l.22.22h0v-.22Z"/>
      <path class="cls-4" d="M75.22,4.26h-1.75c-3.1-.02-6.17.54-9.07,1.64-2.1.75-3.96,2.08-5.35,3.82-.65.86-1.06,1.88-1.2,2.95l-.33,3.28c-.1,1.52-.67,2.97-1.64,4.15-.58.75-1.03,1.6-1.31,2.51-.36,1.48-.29,3.04.22,4.48.71,1.86,1.83,3.54,3.28,4.92l1.42,1.42c-.33.22-.44.22-.66,0-1.1-.98-2.09-2.08-2.95-3.28-.96-1.34-1.63-2.86-1.97-4.48-.37-1.84.07-3.75,1.2-5.24.41-.63.77-1.29,1.09-1.97.47-.95.73-2,.76-3.06.01-1.29.2-2.58.55-3.82.64-1.93,1.96-3.56,3.71-4.59,2.34-1.5,4.99-2.47,7.75-2.84,1.88-.31,3.78-.45,5.68-.44,1.86,0,.44,0,.66.44h-.11v.11Z"/>
      <path class="cls-4" d="M61.56,32.77c-.2.21-.53.22-.74.02,0,0-.02-.02-.02-.02-1.5-1.21-2.76-2.69-3.71-4.37-.87-1.41-1.28-3.05-1.2-4.7.03-.96.3-1.89.76-2.73.47-.8.87-1.64,1.2-2.51.2-.86.34-1.74.44-2.62.08-1.11.26-2.2.55-3.28.6-1.59,1.72-2.94,3.17-3.82,1.91-1.28,4.07-2.14,6.34-2.51,2.42-.4,4.87-.59,7.32-.55,2.51,0,.44,0,.55.44h-4.37c-2.44.14-4.84.7-7.1,1.64-1.64.67-3.1,1.72-4.26,3.06-.74.96-1.22,2.08-1.42,3.28-.11,1.2-.33,2.4-.44,3.5-.18.84-.47,1.65-.87,2.4-.42.72-.75,1.49-.98,2.29-.39,1.38-.27,2.85.33,4.15.72,1.94,1.93,3.67,3.5,5.02.33.33.76.66,1.2,1.09h0l-.22.22h0Z"/>
      <path class="cls-4" d="M63.64,31.89c-.2.14-.46.14-.66,0-1.33-1.07-2.5-2.32-3.5-3.71-1.08-1.57-1.62-3.45-1.53-5.35.09-.88.35-1.73.76-2.51.51-1.1.8-2.29.87-3.5.02-1.04.21-2.07.55-3.06.62-1.56,1.79-2.83,3.28-3.6,1.79-1.03,3.75-1.73,5.79-2.08,2.45-.42,4.94-.57,7.43-.44.3-.04.58.15.66.44h-1.09c-1.75-.04-3.5.04-5.24.22-1.84.15-3.65.59-5.35,1.31-1.97.67-3.64,2.03-4.7,3.82-.37.71-.59,1.49-.66,2.29-.16,1.84-.61,3.64-1.31,5.35-.78,1.71-.74,3.68.11,5.35.83,1.76,2.02,3.32,3.5,4.59.33.33.76.66,1.09.98h0v-.11Z"/>
      <path class="cls-5" d="M79.15,18.35v102.67c0,.44-.22.66-.66.55-8.08,0-16.08-1.52-23.59-4.48-9.19-3.43-17.37-9.1-23.81-16.49-4.62-5.23-8.01-11.42-9.94-18.13-4.02-13.7-1.31-28.49,7.32-39.87,7.86-10.7,18.9-18.02,32.88-21.95,3.72-1.03,7.52-1.72,11.36-2.08,2.18-.22,4.37-.33,6.55-.44h0v.22h-.11Z"/>
      <path class="cls-1" d="M91.49,116.11s0,.22-.11.22c-.76.66-1.64,1.31-2.4,1.97h-.44c-.87-.76-1.64-1.53-2.4-2.29s-1.75-1.64-2.62-2.4-1.64-1.53-2.51-2.4-1.86-1.64-2.73-2.51c-.66-.55-1.31-1.2-1.97-1.75l-2.62-2.29c-.87-.87-1.75-1.64-2.73-2.51l-2.62-2.29c-.55-.55-1.2-1.09-1.75-1.64-1.42-1.31-2.84-2.62-4.37-3.93-1.31-1.2-2.62-2.51-4.04-3.71-1.09-1.09-2.29-2.08-3.5-3.17s-2.29-2.18-3.39-3.17l-3.28-2.95c-1.09-.98-2.18-2.08-3.28-3.06-.44-.44-.87-.76-1.31-1.2-.22-.22-.33-.33,0-.55.87-.55,1.64-1.09,2.4-1.64h.44c.76.66,1.42,1.31,2.18,1.97s1.31,1.2,1.97,1.75c.87.87,1.75,1.64,2.73,2.51.55.55,1.2,1.09,1.75,1.64.87.87,1.86,1.64,2.73,2.51s1.64,1.53,2.51,2.29,1.75,1.64,2.62,2.4,1.75,1.64,2.73,2.4,1.64,1.53,2.51,2.29,1.86,1.64,2.73,2.51,1.64,1.53,2.51,2.29,1.86,1.64,2.73,2.51,1.64,1.53,2.51,2.29l3.5,3.17c.52.54,1.07,1.05,1.64,1.53l3.6,3.28c.87.76,1.75,1.64,2.62,2.51.33.33.76.66,1.09.98.11,0,.22.22.33.33h.22v.11Z"/>
      <path class="cls-1" d="M84.28,122.11c-.76.55-1.42,1.09-2.18,1.64-.22.22-.55.55-.76.55s-.55-.33-.76-.55c-1.42-1.31-2.73-2.62-4.15-3.82l-3.28-2.95c-1.09-1.09-2.18-2.08-3.39-3.17-.87-.76-1.75-1.53-2.62-2.4s-1.75-1.64-2.62-2.4-1.64-1.53-2.51-2.29-1.75-1.64-2.73-2.51c-.66-.55-1.2-1.09-1.86-1.64-.87-.76-1.75-1.64-2.73-2.4s-1.75-1.64-2.62-2.4-1.75-1.64-2.73-2.4l-2.62-2.29c-.87-.87-1.75-1.64-2.73-2.51s-1.75-1.53-2.51-2.29-1.75-1.64-2.73-2.51-1.75-1.53-2.51-2.29c-.11,0-.22-.22-.44-.44.76-.76,1.53-1.53,2.29-2.18.22-.22.33-.22.66,0l4.92,4.59c1.97,1.86,3.93,3.6,6.01,5.46,1.86,1.75,3.71,3.39,5.57,5.13l4.04,3.71c1.64,1.53,3.28,2.95,4.92,4.37.87.76,1.75,1.64,2.62,2.51,1.31,1.2,2.73,2.51,4.15,3.71.87.87,1.75,1.64,2.62,2.51,1.09.98,2.08,1.97,3.17,2.95.87.87,1.86,1.64,2.73,2.51l2.62,2.29c.66.55,1.31,1.2,1.97,1.75h0l.22-.22h0Z"/>
      <path class="cls-1" d="M54.68,69.9c.87.76,1.64,1.53,2.51,2.29l3.5,3.17c.87.87,1.75,1.64,2.73,2.51l3.28,2.95c.66.55,1.2,1.09,1.86,1.75.87.87,1.75,1.64,2.73,2.51s1.75,1.64,2.62,2.4l3.39,3.06c.87.76,1.75,1.64,2.62,2.51s1.64,1.53,2.51,2.29,1.86,1.64,2.73,2.51c.89.74,1.73,1.55,2.51,2.4.87.87,1.86,1.64,2.73,2.51s1.64,1.53,2.51,2.29,1.86,1.64,2.73,2.51,1.75,1.64,2.62,2.4l.22.22c.44.44.44.55,0,.98-.76.55-1.53,1.2-2.18,1.75-.44-.33-.87-.76-1.31-1.09-.98-.87-1.86-1.64-2.73-2.51-1.09-1.09-2.18-2.08-3.39-3.17-.87-.76-1.75-1.64-2.73-2.4s-1.64-1.53-2.51-2.4-1.75-1.53-2.62-2.4-1.75-1.64-2.62-2.4-1.86-1.64-2.73-2.51c-.66-.55-1.2-1.09-1.86-1.64-.87-.76-1.75-1.64-2.62-2.4s-1.75-1.64-2.62-2.4-1.75-1.53-2.62-2.4l-1.75-1.64-3.6-3.28c-1.09-1.09-2.18-2.08-3.39-3.17-.87-.76-1.75-1.53-2.51-2.29-.98-.87-1.97-1.86-2.95-2.73-.22-.22,0-.33.22-.44.94-.41,1.86-.88,2.73-1.42h.22l-.22-.22v-.11Z"/>
      <path class="cls-1" d="M76.96,127.9c-.98.76-1.86,1.53-2.84,2.29-14.75-13.43-29.38-26.87-44.13-40.41.76-.87,1.42-1.86,2.18-2.73h.22c.33.33.55.66.87.98,1.09,1.09,2.18,2.08,3.39,3.17s2.73,2.51,4.15,3.71c.87.76,1.64,1.53,2.51,2.29l4.26,3.93c.87.76,1.75,1.64,2.62,2.51l2.62,2.29c.87.76,1.64,1.53,2.51,2.29s1.86,1.64,2.73,2.51,1.75,1.64,2.62,2.51,1.75,1.53,2.51,2.29,1.75,1.64,2.62,2.4,1.75,1.64,2.62,2.4c.53.57,1.12,1.08,1.75,1.53l3.6,3.28c.86.89,1.77,1.73,2.73,2.51.11,0,.22.22.44.33h0v-.11Z"/>
      <path class="cls-1" d="M25.08,97.87c.55-1.09,1.2-2.18,1.75-3.28l42.82,39.21c-.98.76-1.86,1.53-2.84,2.29-13.98-12.78-27.85-25.45-41.72-38.23Z"/>
      <path class="cls-1" d="M22.79,103.44c.87.76,1.64,1.53,2.4,2.18l4.26,3.93c.87.76,1.75,1.64,2.62,2.51,1.31,1.2,2.73,2.51,4.15,3.71.87.76,1.75,1.64,2.62,2.51l2.62,2.29c.87.76,1.64,1.53,2.51,2.4,1.09.98,2.18,2.08,3.28,3.06.87.87,1.86,1.64,2.73,2.51s1.75,1.53,2.51,2.29,1.75,1.64,2.73,2.51l4.15,3.82c.98.87,1.86,1.75,2.84,2.62-.76.66-1.53,1.31-2.29,1.86-.44.44-.66.33-1.09,0-.55-.55-1.2-1.09-1.86-1.75-.87-.87-1.86-1.64-2.73-2.51l-2.62-2.4c-.87-.76-1.75-1.53-2.51-2.29s-1.86-1.64-2.73-2.51-1.64-1.53-2.51-2.29-1.75-1.64-2.73-2.4-1.75-1.64-2.62-2.4-1.75-1.64-2.62-2.4c-.55-.55-1.09-1.09-1.75-1.64l-3.6-3.28c-.87-.76-1.75-1.64-2.62-2.4s-1.75-1.53-2.62-2.4-1.75-1.64-2.62-2.4c-.33-.33-.76-.66-1.09-.98-.11,0-.22-.33-.22-.44.33-1.2.66-2.4,1.09-3.6h.33v-.11Z"/>
      <path class="cls-1" d="M55.12,145.6c-.98.76-1.86,1.53-2.84,2.29-.87-.76-1.64-1.53-2.51-2.29l-3.6-3.28c-.55-.55-1.2-1.09-1.75-1.64-.87-.87-1.86-1.64-2.73-2.51s-1.64-1.53-2.4-2.29l-3.5-3.17c-.87-.76-1.75-1.64-2.62-2.51s-1.64-1.53-2.51-2.29-1.75-1.64-2.73-2.51-1.75-1.53-2.62-2.4-1.64-1.53-2.51-2.29-1.75-1.64-2.51-2.4c0,0-.22-.22-.22-.33,0-1.42.22-2.84.33-4.48.87.87,1.75,1.53,2.51,2.29s1.75,1.64,2.62,2.4,1.75,1.64,2.73,2.4,1.64,1.53,2.51,2.4,1.75,1.64,2.73,2.4l3.39,3.06c.87.87,1.75,1.64,2.73,2.51s1.64,1.53,2.51,2.29,1.75,1.64,2.62,2.4,1.64,1.64,2.51,2.4,1.86,1.64,2.73,2.51c1.42,1.2,2.73,2.51,4.15,3.71.46.37.9.77,1.31,1.2h-.33v.11Z"/>
      <path class="cls-1" d="M20.39,126.37l27.42,25.12c-.98.76-1.86,1.53-2.84,2.29-.87-.76-1.64-1.53-2.51-2.29-.55-.55-1.2-1.09-1.86-1.64-.87-.76-1.75-1.64-2.62-2.4-.66-.55-1.2-1.2-1.86-1.75-.87-.87-1.86-1.64-2.73-2.51s-1.75-1.64-2.62-2.4-1.75-1.64-2.62-2.4-1.75-1.64-2.62-2.4-1.75-1.64-2.62-2.4c-.45-.31-.85-.67-1.2-1.09-.22-.33-.55-.66-.55-.98-.33-1.64-.66-3.39-.98-5.02h.22v-.11Z"/>
    </g>
  </g>
</svg>