<svg xmlns="http://www.w3.org/2000/svg" xmlns:xlink="http://www.w3.org/1999/xlink" viewBox="0 0 436.9 147.4"><defs><style>.cls-1{fill:none;}.cls-2{clip-path:url(#clip-path);}.cls-3{fill:#e0dac4;}.cls-4{fill:#f4ca21;}.cls-5{fill:#049754;}.cls-6{fill:#de4325;}.cls-7{fill:#094fad;}</style><clipPath id="clip-path" transform="translate(0 6.6)"><rect class="cls-1" width="400" height="117.1"/></clipPath></defs><g id="Layer_2" data-name="Layer 2"><g id="Layer_1-2" data-name="Layer 1"><g class="cls-2"><rect class="cls-3" y="6.6" width="413.7" height="117.1"/><ellipse class="cls-4" cx="364.1" cy="48.2" rx="16.1" ry="13.9"/><rect class="cls-1" y="6.6" width="413.6" height="117.6"/><path class="cls-5" d="M389.8,35.2a.85.85,0,0,1-.7,0,20.11,20.11,0,0,1-3.1-4.1,12,12,0,0,1-1.7-4.8,8.64,8.64,0,0,1,.9-5.2,10.91,10.91,0,0,1,2.1-2.7c.8-.8,1.5-1.6,2.2-2.4a7.31,7.31,0,0,0,1.6-3.6c.2-1.1.2-2.2.3-3.3a18,18,0,0,1,.3-4,10,10,0,0,1,2-4.3,16.78,16.78,0,0,1,7.7-5.6,27.29,27.29,0,0,1,6.4-1.6,5,5,0,0,0,1.7-.2c.3,0,.2.2.4.4h-.7a24.7,24.7,0,0,0-12,4.2,12,12,0,0,0-4.8,6.6,7.61,7.61,0,0,0-.3,2.1c0,1.3-.1,2.6-.2,3.9a9.78,9.78,0,0,1-.9,4.1,10.13,10.13,0,0,1-2.2,2.9c-.8.9-1.7,1.8-2.4,2.7a6.91,6.91,0,0,0-1.4,3.3,10.58,10.58,0,0,0,1.4,6.9,20.26,20.26,0,0,0,3.3,4.4l.3.3Z" transform="translate(0 6.6)"/><path class="cls-5" d="M391.6,34.5q-.41.2-.6,0a21.33,21.33,0,0,1-3.6-4.9,11.55,11.55,0,0,1-1.2-4A8.21,8.21,0,0,1,387,21a11.22,11.22,0,0,1,1.6-2.2c.7-.7,1.3-1.5,2-2.2a8,8,0,0,0,1.8-4.1c.1-1,.1-2.1.2-3.1a15.09,15.09,0,0,1,.5-4.2A12.18,12.18,0,0,1,397-.3a20.2,20.2,0,0,1,7.9-3.9,19.59,19.59,0,0,1,4.6-.8h.6a.6.6,0,0,1,.6.3h-.8a28.82,28.82,0,0,0-6.5,1.3,16,16,0,0,0-8.2,5.6,9.22,9.22,0,0,0-1.9,4.7c-.1,1.2-.1,2.4-.2,3.6a13.32,13.32,0,0,1-.5,3.4,8.78,8.78,0,0,1-2.4,3.7,26.22,26.22,0,0,0-2.2,2.5,7,7,0,0,0-1.3,3.8,11,11,0,0,0,1.5,5.9,25.89,25.89,0,0,0,3.2,4.2s.1,0,.2.2h0Z" transform="translate(0 6.6)"/><path class="cls-5" d="M393.5,33.7h-.6a21.23,21.23,0,0,1-3.2-4.2,11.51,11.51,0,0,1-1.5-4.4,7.74,7.74,0,0,1,2.1-6.4c.7-.8,1.4-1.6,2.1-2.5a6,6,0,0,0,1.2-3.1l.3-3.6a11.15,11.15,0,0,1,1.2-5,12.75,12.75,0,0,1,4.8-4.7,20.83,20.83,0,0,1,7.7-2.7c1.2-.2,2.3-.3,3.5-.4.3,0,.4,0,.5.4h-1a27.22,27.22,0,0,0-7.4,1.6,14.83,14.83,0,0,0-7.1,5.1,7.72,7.72,0,0,0-1.6,4c-.1,1-.1,2-.2,2.9a10,10,0,0,1-.7,4.2,7.44,7.44,0,0,1-1.4,2.2l-2.1,2.4a7.15,7.15,0,0,0-1.6,4.8,9.69,9.69,0,0,0,1.5,4.9,21.79,21.79,0,0,0,3.3,4.2s.1,0,.2.2h0Z" transform="translate(0 6.6)"/><path class="cls-5" d="M412.5-1.3h-1a23.41,23.41,0,0,0-5.3.8,16.78,16.78,0,0,0-7.8,4.1,9.12,9.12,0,0,0-2.7,5.1c-.1,1-.2,2-.2,3a10.46,10.46,0,0,1-.7,3.7,11.56,11.56,0,0,1-1.8,2.7c-.5.7-1.1,1.4-1.6,2.1a5.3,5.3,0,0,0-.8,2.7,9.33,9.33,0,0,0,1.9,6.2,21.58,21.58,0,0,0,2.7,3.3l.3.3q-.4.19-.6,0a20.8,20.8,0,0,1-3.6-4.8,11,11,0,0,1-1.1-3.5,6.49,6.49,0,0,1,.9-4.5,9,9,0,0,1,1.5-1.9,13.09,13.09,0,0,0,1.7-2.4A7.71,7.71,0,0,0,395,13c.1-1.3.2-2.5.3-3.8a9.63,9.63,0,0,1,4-7,18.67,18.67,0,0,1,8-3.5,39.34,39.34,0,0,1,4.8-.6.55.55,0,0,1,.6.4h0l-.2.2Z" transform="translate(0 6.6)"/><path class="cls-5" d="M397.2,32.2a.85.85,0,0,1-.7,0,20.52,20.52,0,0,1-3.5-4.4,9.17,9.17,0,0,1-1.2-5.1,5.39,5.39,0,0,1,1-3c.5-.6.9-1.3,1.4-1.9a6.51,6.51,0,0,0,1.6-3.7,13.66,13.66,0,0,1,.2-1.9,13.17,13.17,0,0,1,.4-3.4A8.64,8.64,0,0,1,398.6,5a16.34,16.34,0,0,1,7.3-4,23.3,23.3,0,0,1,4.6-.8,17.85,17.85,0,0,0,2.3-.2h.2a1.44,1.44,0,0,0,.2.3H412a25.09,25.09,0,0,0-9,2,12.13,12.13,0,0,0-5.2,4.2,7.33,7.33,0,0,0-1.2,3.5l-.3,3.3a7.91,7.91,0,0,1-2,4.7,10,10,0,0,0-1.6,2.4,5.86,5.86,0,0,0-.5,3.2,11.09,11.09,0,0,0,2.5,5.9,22.91,22.91,0,0,0,2.1,2.3l.2.2h0Z" transform="translate(0 6.6)"/><path class="cls-5" d="M399,31.5a.85.85,0,0,1-.7,0,19.76,19.76,0,0,1-3.6-4.6,9.49,9.49,0,0,1-1-4.7,5,5,0,0,1,1-2.8c.5-.7,1-1.4,1.5-2.2a6.3,6.3,0,0,0,1-2.9c.1-1.1.2-2.2.3-3.4a8.07,8.07,0,0,1,3.7-5.7,15.46,15.46,0,0,1,7-2.8,26.07,26.07,0,0,1,4.8-.5h.8c.3,0,.4.1.5.4h-.5a27,27,0,0,0-6.3.7,14.49,14.49,0,0,0-6.9,3.4,7.22,7.22,0,0,0-2.6,4.7c-.1.9-.2,1.9-.3,2.9a8.16,8.16,0,0,1-1.6,4.4,12,12,0,0,0-1.5,2.4,5.71,5.71,0,0,0-.4,2.9,10.68,10.68,0,0,0,3,6.2,12.09,12.09,0,0,0,1.6,1.6l.2.2h0Z" transform="translate(0 6.6)"/><path class="cls-5" d="M415.3,3.9h-1.6a23.05,23.05,0,0,0-8.3,1.5,11,11,0,0,0-4.9,3.5,5.75,5.75,0,0,0-1.1,2.7l-.3,3a6.67,6.67,0,0,1-1.5,3.8,7.24,7.24,0,0,0-1.2,2.3,7.18,7.18,0,0,0,.2,4.1,12.27,12.27,0,0,0,3,4.5l1.3,1.3c-.3.2-.4.2-.6,0a18.78,18.78,0,0,1-2.7-3,10.73,10.73,0,0,1-1.8-4.1,6,6,0,0,1,1.1-4.8,16.18,16.18,0,0,0,1-1.8,6.81,6.81,0,0,0,.7-2.8,13.45,13.45,0,0,1,.5-3.5,7.66,7.66,0,0,1,3.4-4.2,17.36,17.36,0,0,1,7.1-2.6,30.37,30.37,0,0,1,5.2-.4c1.7,0,.4,0,.6.4h-.1Z" transform="translate(0 6.6)"/><path class="cls-5" d="M402.8,30a.48.48,0,0,1-.7,0,14.22,14.22,0,0,1-3.4-4,7.49,7.49,0,0,1-1.1-4.3,5.53,5.53,0,0,1,.7-2.5,16.27,16.27,0,0,0,1.1-2.3,20,20,0,0,0,.4-2.4,15.67,15.67,0,0,1,.5-3A7,7,0,0,1,403.2,8,14.73,14.73,0,0,1,409,5.7a37.1,37.1,0,0,1,6.7-.5c2.3,0,.4,0,.5.4h-4a19.93,19.93,0,0,0-6.5,1.5,10.29,10.29,0,0,0-3.9,2.8,6.72,6.72,0,0,0-1.3,3c-.1,1.1-.3,2.2-.4,3.2a8.26,8.26,0,0,1-.8,2.2,9.49,9.49,0,0,0-.9,2.1,5.52,5.52,0,0,0,.3,3.8,11.28,11.28,0,0,0,3.2,4.6c.3.3.7.6,1.1,1h0l-.2.2Z" transform="translate(0 6.6)"/><path class="cls-5" d="M404.7,29.2a.51.51,0,0,1-.6,0,17.22,17.22,0,0,1-3.2-3.4,8,8,0,0,1-1.4-4.9,6.15,6.15,0,0,1,.7-2.3,8.87,8.87,0,0,0,.8-3.2,9.18,9.18,0,0,1,.5-2.8,6.4,6.4,0,0,1,3-3.3,16,16,0,0,1,5.3-1.9,30.72,30.72,0,0,1,6.8-.4.54.54,0,0,1,.6.4h-1a38.54,38.54,0,0,0-4.8.2,16,16,0,0,0-4.9,1.2,8,8,0,0,0-4.3,3.5,5.56,5.56,0,0,0-.6,2.1,16.75,16.75,0,0,1-1.2,4.9,5.62,5.62,0,0,0,.1,4.9,12.71,12.71,0,0,0,3.2,4.2c.3.3.7.6,1,.9h0Z" transform="translate(0 6.6)"/><path class="cls-6" d="M418.9,16.8v94c0,.4-.2.6-.6.5a58.8,58.8,0,0,1-21.6-4.1,53.84,53.84,0,0,1-21.8-15.1,43.05,43.05,0,0,1-9.1-16.6A41.19,41.19,0,0,1,372.5,39c7.2-9.8,17.3-16.5,30.1-20.1A59.61,59.61,0,0,1,413,17c2-.2,4-.3,6-.4h0v.2Z" transform="translate(0 6.6)"/><path class="cls-7" d="M430.2,106.3s0,.2-.1.2c-.7.6-1.5,1.2-2.2,1.8h-.4c-.8-.7-1.5-1.4-2.2-2.1s-1.6-1.5-2.4-2.2-1.5-1.4-2.3-2.2-1.7-1.5-2.5-2.3c-.6-.5-1.2-1.1-1.8-1.6l-2.4-2.1c-.8-.8-1.6-1.5-2.5-2.3L409,91.4c-.5-.5-1.1-1-1.6-1.5-1.3-1.2-2.6-2.4-4-3.6-1.2-1.1-2.4-2.3-3.7-3.4-1-1-2.1-1.9-3.2-2.9s-2.1-2-3.1-2.9l-3-2.7c-1-.9-2-1.9-3-2.8-.4-.4-.8-.7-1.2-1.1-.2-.2-.3-.3,0-.5.8-.5,1.5-1,2.2-1.5h.4c.7.6,1.3,1.2,2,1.8s1.2,1.1,1.8,1.6c.8.8,1.6,1.5,2.5,2.3.5.5,1.1,1,1.6,1.5.8.8,1.7,1.5,2.5,2.3s1.5,1.4,2.3,2.1,1.6,1.5,2.4,2.2,1.6,1.5,2.5,2.2,1.5,1.4,2.3,2.1,1.7,1.5,2.5,2.3,1.5,1.4,2.3,2.1,1.7,1.5,2.5,2.3,1.5,1.4,2.3,2.1l3.2,2.9a19.2,19.2,0,0,0,1.5,1.4l3.3,3c.8.7,1.6,1.5,2.4,2.3.3.3.7.6,1,.9.1,0,.2.2.3.3h.2Z" transform="translate(0 6.6)"/><path class="cls-7" d="M423.6,111.8c-.7.5-1.3,1-2,1.5-.2.2-.5.5-.7.5s-.5-.3-.7-.5c-1.3-1.2-2.5-2.4-3.8-3.5l-3-2.7c-1-1-2-1.9-3.1-2.9-.8-.7-1.6-1.4-2.4-2.2s-1.6-1.5-2.4-2.2-1.5-1.4-2.3-2.1-1.6-1.5-2.5-2.3c-.6-.5-1.1-1-1.7-1.5-.8-.7-1.6-1.5-2.5-2.2s-1.6-1.5-2.4-2.2-1.6-1.5-2.5-2.2l-2.4-2.1c-.8-.8-1.6-1.5-2.5-2.3s-1.6-1.4-2.3-2.1-1.6-1.5-2.5-2.3-1.6-1.4-2.3-2.1c-.1,0-.2-.2-.4-.4.7-.7,1.4-1.4,2.1-2,.2-.2.3-.2.6,0l4.5,4.2c1.8,1.7,3.6,3.3,5.5,5,1.7,1.6,3.4,3.1,5.1,4.7l3.7,3.4c1.5,1.4,3,2.7,4.5,4,.8.7,1.6,1.5,2.4,2.3,1.2,1.1,2.5,2.3,3.8,3.4.8.8,1.6,1.5,2.4,2.3,1,.9,1.9,1.8,2.9,2.7.8.8,1.7,1.5,2.5,2.3l2.4,2.1c.6.5,1.2,1.1,1.8,1.6h0l.2-.2Z" transform="translate(0 6.6)"/><path class="cls-7" d="M396.5,64c.8.7,1.5,1.4,2.3,2.1L402,69c.8.8,1.6,1.5,2.5,2.3l3,2.7c.6.5,1.1,1,1.7,1.6.8.8,1.6,1.5,2.5,2.3s1.6,1.5,2.4,2.2l3.1,2.8c.8.7,1.6,1.5,2.4,2.3s1.5,1.4,2.3,2.1,1.7,1.5,2.5,2.3a23.91,23.91,0,0,1,2.3,2.2c.8.8,1.7,1.5,2.5,2.3s1.5,1.4,2.3,2.1,1.7,1.5,2.5,2.3,1.6,1.5,2.4,2.2l.2.2c.4.4.4.5,0,.9-.7.5-1.4,1.1-2,1.6-.4-.3-.8-.7-1.2-1-.9-.8-1.7-1.5-2.5-2.3-1-1-2-1.9-3.1-2.9-.8-.7-1.6-1.5-2.5-2.2s-1.5-1.4-2.3-2.2-1.6-1.4-2.4-2.2-1.6-1.5-2.4-2.2-1.7-1.5-2.5-2.3c-.6-.5-1.1-1-1.7-1.5-.8-.7-1.6-1.5-2.4-2.2s-1.6-1.5-2.4-2.2-1.6-1.4-2.4-2.2l-1.6-1.5-3.3-3c-1-1-2-1.9-3.1-2.9-.8-.7-1.6-1.4-2.3-2.1-.9-.8-1.8-1.7-2.7-2.5-.2-.2,0-.3.2-.4a19.65,19.65,0,0,0,2.5-1.3h.2l-.2-.2Z" transform="translate(0 6.6)"/><path class="cls-7" d="M416.9,117.1c-.9.7-1.7,1.4-2.6,2.1-13.5-12.3-26.9-24.6-40.4-37,.7-.8,1.3-1.7,2-2.5h.2c.3.3.5.6.8.9,1,1,2,1.9,3.1,2.9s2.5,2.3,3.8,3.4c.8.7,1.5,1.4,2.3,2.1l3.9,3.6c.8.7,1.6,1.5,2.4,2.3l2.4,2.1c.8.7,1.5,1.4,2.3,2.1s1.7,1.5,2.5,2.3,1.6,1.5,2.4,2.3,1.6,1.4,2.3,2.1,1.6,1.5,2.4,2.2,1.6,1.5,2.4,2.2a10.7,10.7,0,0,0,1.6,1.4l3.3,3a27.25,27.25,0,0,0,2.5,2.3c.1,0,.2.2.4.3h0Z" transform="translate(0 6.6)"/><path class="cls-7" d="M369.4,89.6c.5-1,1.1-2,1.6-3l39.2,35.9c-.9.7-1.7,1.4-2.6,2.1C394.8,112.9,382.1,101.3,369.4,89.6Z" transform="translate(0 6.6)"/><path class="cls-7" d="M367.3,94.7c.8.7,1.5,1.4,2.2,2l3.9,3.6c.8.7,1.6,1.5,2.4,2.3,1.2,1.1,2.5,2.3,3.8,3.4.8.7,1.6,1.5,2.4,2.3l2.4,2.1c.8.7,1.5,1.4,2.3,2.2,1,.9,2,1.9,3,2.8.8.8,1.7,1.5,2.5,2.3s1.6,1.4,2.3,2.1,1.6,1.5,2.5,2.3l3.8,3.5c.9.8,1.7,1.6,2.6,2.4-.7.6-1.4,1.2-2.1,1.7-.4.4-.6.3-1,0-.5-.5-1.1-1-1.7-1.6-.8-.8-1.7-1.5-2.5-2.3l-2.4-2.2c-.8-.7-1.6-1.4-2.3-2.1s-1.7-1.5-2.5-2.3-1.5-1.4-2.3-2.1-1.6-1.5-2.5-2.2-1.6-1.5-2.4-2.2-1.6-1.5-2.4-2.2c-.5-.5-1-1-1.6-1.5l-3.3-3c-.8-.7-1.6-1.5-2.4-2.2s-1.6-1.4-2.4-2.2-1.6-1.5-2.4-2.2c-.3-.3-.7-.6-1-.9-.1,0-.2-.3-.2-.4.3-1.1.6-2.2,1-3.3h.3Z" transform="translate(0 6.6)"/><path class="cls-7" d="M396.9,133.3c-.9.7-1.7,1.4-2.6,2.1-.8-.7-1.5-1.4-2.3-2.1l-3.3-3c-.5-.5-1.1-1-1.6-1.5-.8-.8-1.7-1.5-2.5-2.3s-1.5-1.4-2.2-2.1l-3.2-2.9c-.8-.7-1.6-1.5-2.4-2.3s-1.5-1.4-2.3-2.1-1.6-1.5-2.5-2.3-1.6-1.4-2.4-2.2-1.5-1.4-2.3-2.1-1.6-1.5-2.3-2.2c0,0-.2-.2-.2-.3,0-1.3.2-2.6.3-4.1.8.8,1.6,1.4,2.3,2.1s1.6,1.5,2.4,2.2,1.6,1.5,2.5,2.2,1.5,1.4,2.3,2.2,1.6,1.5,2.5,2.2l3.1,2.8c.8.8,1.6,1.5,2.5,2.3s1.5,1.4,2.3,2.1,1.6,1.5,2.4,2.2,1.5,1.5,2.3,2.2,1.7,1.5,2.5,2.3c1.3,1.1,2.5,2.3,3.8,3.4a12,12,0,0,1,1.2,1.1h-.3Z" transform="translate(0 6.6)"/><path class="cls-7" d="M365.1,115.7l25.1,23c-.9.7-1.7,1.4-2.6,2.1-.8-.7-1.5-1.4-2.3-2.1-.5-.5-1.1-1-1.7-1.5-.8-.7-1.6-1.5-2.4-2.2-.6-.5-1.1-1.1-1.7-1.6-.8-.8-1.7-1.5-2.5-2.3s-1.6-1.5-2.4-2.2-1.6-1.5-2.4-2.2-1.6-1.5-2.4-2.2-1.6-1.5-2.4-2.2a5.24,5.24,0,0,1-1.1-1c-.2-.3-.5-.6-.5-.9-.3-1.5-.6-3.1-.9-4.6h.2Z" transform="translate(0 6.6)"/></g></g></g></svg>